 http://img692.imageshack.us/img692/5377/mirrors22010.jpg

Country.......: USA
Genre.........: Horror, Thriller
Date release..: 05.10.2010 [World]
Director......: Victor Garcia
Writers.......: Matt Venne, Sung ho Kim
Duration......: 86 min.
More..........: http://www.imdb.com/title/tt1576699
Trailer.......: http://www.imdb.com/video/screenplay/vi2044594457
Trailer.......:

Pilot :
When Max, who is recovering from a traumatic accident, takes a job as a nighttime security guard, he begins to see visions of a young mysterious woman in the store's mirror. 

Cats :
Nick Stahl   	 ...  	Max Matheson
Emmanuelle Vaugier 	... 	Elizabeth Reigns (as Emmanuelle Vaugiér)
Evan Jones 	... 	Henry Schow
Christy Carlson Romano 	... 	Jenna McCarty (as Christy Romano)
William Katt 	... 	Jack Matheson
Lawrence Turner 	... 	Keller Landreaux
Stephanie Honore 	... 	Eleanor Reigns (as Stephanie Honoré Sanchez)
Jon Michael Davis 	... 	Ryan Parker
Wayne Pere 	... 	Detective Piccirilli (as Wayne Pere)
Lance E. Nichols 	... 	Detective Huston
Ann Mckenzie 	... 	Dr. Beaumont
Jennifer Sipes 	... 	Kayla
Oneal A. Isaac 	... 	Day Guard
Alex Diaz 	... 	Puppeteer #1
Kevin Wasner 	... 	Puppeteer #2 

Data Technical :
!!! SAMPLE !!!
Audio.....: Lector Polish
Subtitles.: None
Format                           : AVI
Format/Info                      : Audio Video Interleave
File size                        : 700 MiB
Duration                         : 1h 26mn
Overall bit rate                 : 1 131 Kbps
Writing application              : VirtualDubMod 1.5.10.2 (build 2540/release)
Writing library                  : VirtualDubMod build 2540/release
Video
ID                               : 0
Format                           : MPEG-4 Visual
Format profile                   : Advanced Simple@L5
Format settings, BVOP            : Yes
Format settings, QPel            : No
Format settings, GMC             : No warppoints
Format settings, Matrix          : Default (H.263)
Codec ID                         : XVID
Codec ID/Hint                    : XviD
Duration                         : 1h 26mn
Bit rate                         : 1 000 Kbps
Width                            : 640 pixels
Height                           : 352 pixels
Display aspect ratio             : 16:9
Frame rate                       : 25.000 fps
Color space                      : YUV
Chroma subsampling               : 4:2:0
Bit depth                        : 8 bits
Scan type                        : Progressive
Bits/(Pixel*Frame)               : 0.178
Stream size                      : 618 MiB (88%)
Writing library                  : XviD 1.2.1 (UTC 2008-12-04)
Audio
ID                               : 1
Format                           : MPEG Audio
Format version                   : Version 1
Format profile                   : Layer 3
Mode                             : Joint stereo
Mode extension                   : MS Stereo
Codec ID                         : 55
Codec ID/Hint                    : MP3
Duration                         : 1h 26mn
Bit rate mode                    : Variable
Bit rate                         : 118 Kbps
Nominal bit rate                 : 136 Kbps
Channel(s)                       : 2 channels
Sampling rate                    : 48.0 KHz
Stream size                      : 73.1 MiB (10%)
Alignment                        : Aligned on interleaves
Interleave, duration             : 24 ms (0.60 video frame)
Interleave, preload duration     : 155 ms
Writing library                  : LAME3.98r
Encoding settings                : -m j -V 4 -q 2 -lowpass 17 --abr 136

Screen : 
http://img191.imageshack.us/img191/4903/mirrors22010s5.jpg 
http://img863.imageshack.us/img863/3112/mirrors22010s1.jpg 
http://img31.imageshack.us/img31/539/mirrors22010s2.jpg 
http://img847.imageshack.us/img847/8132/mirrors22010s4.jpg 
http://img717.imageshack.us/img717/8494/mirrors22010s3.jpg